<?xml version="1.0" standalone="no"?>
<!DOCTYPE svg PUBLIC "-//W3C//DTD SVG 20010904//EN"
 "http://www.w3.org/TR/2001/REC-SVG-20010904/DTD/svg10.dtd">
<svg version="1.0" xmlns="http://www.w3.org/2000/svg"
 width="636pt" height="528pt" viewBox="0 0 636 528"
 preserveAspectRatio="xMidYMid meet">

<g transform="translate(0.000,528.000) scale(0.100,-0.10)"
fill="#868d97" stroke="none">
<path d="M1478 5255 c-676 -92 -1240 -600 -1412 -1271 -59 -229 -59 -219 -64
-1234 -4 -988 1 -1168 39 -1355 146 -718 720 -1270 1423 -1370 469 -67 940 72
1311 386 239 202 416 469 520 782 76 229 85 310 85 802 l1 425 144 0 145 0 0
213 0 214 -197 6 c-250 9 -584 9 -880 0 l-233 -6 0 -214 0 -213 300 0 300 0 0
-381 c0 -508 -18 -629 -130 -865 -218 -464 -645 -744 -1134 -744 -330 0 -629
123 -862 355 -160 159 -271 334 -338 535 -72 215 -69 168 -73 1245 -5 1117 -4
1133 64 1363 76 256 261 519 478 679 87 65 237 144 337 177 167 56 186 58 601
63 l387 5 0 209 0 209 -357 -1 c-236 -1 -391 -6 -455 -14z"/>
<path d="M2960 4180 l0 -1090 210 0 210 0 0 885 0 886 858 -3 857 -3 96 -27
c350 -96 607 -349 715 -703 26 -84 28 -102 28 -270 0 -166 -2 -187 -27 -266
-37 -121 -69 -189 -133 -286 -156 -235 -426 -404 -697 -438 l-57 -7 0 -209 0
-209 94 0 c264 0 619 174 842 412 229 245 351 509 393 848 56 445 -130 926
-473 1222 -188 163 -385 262 -646 324 -69 17 -158 18 -1172 21 l-1098 4 0
-1091z"/>
<path d="M1910 2640 l0 -649 174 -3 c95 -2 181 -2 190 0 15 3 16 58 16 653 l0
649 -190 0 -190 0 0 -650z"/>
<path d="M4010 2642 c0 -357 2 -651 4 -653 2 -2 88 -3 190 -1 l186 3 0 649 0
650 -190 0 -190 0 0 -648z"/>
<path d="M1445 2640 l0 -410 188 0 187 0 0 410 0 410 -187 0 -188 0 0 -410z"/>
<path d="M4470 2640 l0 -410 190 0 190 0 0 410 0 410 -190 0 -190 0 0 -410z"/>
<path d="M5030 1043 l1 -988 30 35 c50 57 154 219 198 307 89 177 148 365 176
564 11 80 15 216 15 587 l0 482 -210 0 -210 0 0 -987z"/>
</g>
</svg>
